<svg width="440" height="240" viewBox="0 0 440 240" fill="none" xmlns="http://www.w3.org/2000/svg">
    <g clip-path="url(#clip0_2031_35230)">
        <path d="M0 12C0 5.37259 5.37258 0 12 0H428C434.627 0 440 5.37258 440 12V240H0V12Z" fill="#202020" />
        <path d="M440 0H265V240H440V0Z" fill="url(#paint0_radial_2031_35230)" />
        <g clip-path="url(#clip1_2031_35230)">
            <path opacity="0.6"
                d="M330 239.768H270C270 186.88 290.592 137.152 327.992 99.7601C365.392 62.3681 415.112 41.7681 468 41.7681V101.768C391.904 101.768 330 163.672 330 239.768Z"
                fill="url(#paint1_radial_2031_35230)" />
            <path fill-rule="evenodd" clip-rule="evenodd"
                d="M443.224 167.368C443.224 143.648 425.696 126.536 411.696 115.944H400.456H389.216C375.216 126.536 357.688 143.648 357.688 167.368C357.688 191.176 376.776 203.456 400.344 203.496C400.36 203.496 400.384 203.496 400.4 203.496C400.416 203.496 400.44 203.496 400.456 203.496C400.472 203.496 400.496 203.496 400.512 203.496C400.528 203.496 400.552 203.496 400.568 203.496C424.136 203.456 443.224 191.176 443.224 167.368Z"
                fill="white" stroke="#202020" stroke-width="1.2" stroke-linecap="round" stroke-linejoin="round" />
            <path
                d="M416.088 162.728C415.552 161.424 414.76 160.272 413.712 159.272C412.664 158.272 411.376 157.408 409.848 156.688C408.312 155.968 406.552 155.384 404.552 154.952L402.464 154.48V146.056C403.616 146.224 404.552 146.592 405.272 147.152C406.304 147.96 406.888 149.088 407.016 150.536H416.368C416.344 148.024 415.688 145.816 414.416 143.904C413.144 142 411.344 140.512 409.04 139.456C407.128 138.576 404.936 138.064 402.456 137.912V133.368H399.216V137.92C396.816 138.08 394.64 138.584 392.688 139.448C390.296 140.504 388.416 141.968 387.064 143.848C385.712 145.728 385.04 147.92 385.048 150.416C385.032 153.48 386.032 155.912 388.048 157.704C390.064 159.496 392.816 160.8 396.312 161.6L399.216 162.28V171.176C398.392 171.072 397.64 170.88 396.96 170.6C395.872 170.152 395.024 169.496 394.408 168.624C393.792 167.752 393.44 166.672 393.36 165.368H384C384.04 168.528 384.76 171.136 386.152 173.2C387.544 175.264 389.496 176.808 392.016 177.816C394.112 178.664 396.52 179.152 399.216 179.288V183.872H402.456V179.288C405.144 179.152 407.488 178.688 409.488 177.872C411.872 176.896 413.704 175.496 414.984 173.672C416.256 171.84 416.904 169.656 416.92 167.104C416.896 165.488 416.624 164.024 416.088 162.728ZM398.584 153.472C397.848 153.208 397.216 152.904 396.696 152.552C396.176 152.2 395.784 151.8 395.512 151.336C395.24 150.872 395.12 150.344 395.144 149.736C395.16 149 395.376 148.344 395.792 147.776C396.216 147.2 396.848 146.752 397.688 146.424C398.136 146.248 398.64 146.12 399.208 146.04V153.68C399 153.616 398.784 153.544 398.584 153.472ZM406.24 169.256C405.736 169.888 405.024 170.384 404.096 170.736C403.6 170.928 403.056 171.064 402.448 171.152V163.096C403.096 163.288 403.672 163.496 404.176 163.704C405.128 164.104 405.84 164.576 406.296 165.128C406.76 165.672 406.992 166.328 407.008 167.088C406.992 167.904 406.736 168.624 406.24 169.256Z"
                fill="#202020" />
            <path fill-rule="evenodd" clip-rule="evenodd"
                d="M400.456 107.664C413.136 107.664 418.048 99.6559 419.864 96.3039C422.072 92.2159 422.128 87.6079 419 85.4399C413.344 81.4959 408.344 88.0799 408.344 88.0799C408.344 88.0799 405.912 83.5039 400.456 83.5039C395 83.5039 392.568 88.0799 392.568 88.0799C392.568 88.0799 387.568 81.5039 381.912 85.4399C378.792 87.6159 378.84 92.2159 381.048 96.3039C382.864 99.6639 387.776 107.664 400.456 107.664Z"
                fill="white" stroke="#202020" stroke-width="1.2" stroke-linecap="round" stroke-linejoin="round" />
            <path fill-rule="evenodd" clip-rule="evenodd"
                d="M389.624 105.528H411.288C414.144 105.528 416.448 107.848 416.448 110.736C416.448 113.624 414.144 115.944 411.288 115.944H389.624C386.768 115.944 384.464 113.624 384.464 110.736C384.464 107.856 386.768 105.528 389.624 105.528Z"
                fill="#FF9C2E" stroke="#202020" stroke-width="1.2" stroke-linecap="round" stroke-linejoin="round" />
            <path
                d="M387.544 72.104C387.552 71.616 387.432 71.12 387.16 70.648L359.912 23.416C359.368 22.472 358.416 22 357.464 22C356.512 22 355.56 22.472 355.016 23.416L327.776 70.648C327.504 71.12 327.384 71.616 327.392 72.104C327.416 73.56 328.592 74.888 330.224 74.888H338.768C339.264 74.888 339.72 75.04 340.104 75.296C340.736 75.728 341.152 76.448 341.152 77.272V210.928C341.152 213.448 343.2 215.496 345.72 215.496H369.216C371.736 215.496 373.784 213.448 373.784 210.928V77.272C373.784 76.448 374.2 75.72 374.832 75.296C375.216 75.04 375.672 74.888 376.168 74.888H384.712C386.344 74.888 387.512 73.56 387.544 72.104Z"
                fill="#FF9C2E" stroke="#202020" stroke-width="1.2" stroke-miterlimit="10" stroke-linecap="round"
                stroke-linejoin="round" />
            <path fill-rule="evenodd" clip-rule="evenodd"
                d="M369.224 188.4C369.224 170.608 356.08 157.776 345.576 149.832H337.152H328.72C318.224 157.776 305.072 170.608 305.072 188.4C305.072 206.256 319.384 215.464 337.064 215.496C337.08 215.496 337.096 215.496 337.104 215.496C337.112 215.496 337.136 215.496 337.144 215.496C337.16 215.496 337.176 215.496 337.184 215.496C337.192 215.496 337.216 215.496 337.224 215.496C354.912 215.472 369.224 206.256 369.224 188.4Z"
                fill="white" stroke="#202020" stroke-width="1.2" stroke-linecap="round" stroke-linejoin="round" />
            <path
                d="M348.872 184.92C348.464 183.944 347.872 183.08 347.088 182.328C346.304 181.576 345.336 180.936 344.184 180.392C343.032 179.848 341.712 179.416 340.208 179.088L338.64 178.728V172.408C339.504 172.536 340.208 172.808 340.752 173.232C341.528 173.84 341.96 174.688 342.064 175.768H349.08C349.064 173.88 348.568 172.224 347.616 170.792C346.656 169.36 345.312 168.248 343.584 167.456C342.152 166.8 340.504 166.416 338.648 166.304V162.896H336.224V166.312C334.424 166.432 332.792 166.808 331.328 167.456C329.536 168.248 328.128 169.344 327.112 170.76C326.096 172.168 325.592 173.816 325.6 175.688C325.592 177.984 326.344 179.808 327.848 181.16C329.36 182.504 331.424 183.48 334.048 184.08L336.224 184.592V191.264C335.608 191.184 335.04 191.04 334.528 190.832C333.712 190.496 333.072 190 332.608 189.352C332.144 188.704 331.88 187.888 331.824 186.912H324.808C324.84 189.28 325.376 191.24 326.424 192.784C327.472 194.336 328.936 195.488 330.816 196.248C332.392 196.88 334.192 197.248 336.216 197.352V200.792H338.64V197.352C340.656 197.256 342.416 196.904 343.912 196.288C345.704 195.56 347.08 194.504 348.032 193.136C348.992 191.768 349.472 190.12 349.48 188.208C349.48 186.992 349.28 185.896 348.872 184.92ZM335.744 177.976C335.192 177.776 334.72 177.552 334.328 177.288C333.936 177.024 333.64 176.72 333.44 176.376C333.24 176.032 333.144 175.632 333.168 175.176C333.176 174.624 333.344 174.136 333.656 173.704C333.968 173.272 334.448 172.936 335.08 172.688C335.416 172.56 335.792 172.464 336.216 172.4V178.128C336.056 178.088 335.896 178.032 335.744 177.976ZM341.488 189.816C341.112 190.288 340.576 190.656 339.88 190.928C339.512 191.072 339.096 191.176 338.648 191.24V185.2C339.136 185.344 339.568 185.496 339.944 185.656C340.656 185.96 341.192 186.312 341.536 186.72C341.88 187.128 342.056 187.624 342.072 188.192C342.056 188.8 341.864 189.344 341.488 189.816Z"
                fill="#202020" />
            <path fill-rule="evenodd" clip-rule="evenodd"
                d="M337.152 143.624C346.664 143.624 350.344 137.624 351.704 135.104C353.36 132.04 353.4 128.584 351.056 126.952C346.808 124 343.064 128.928 343.064 128.928C343.064 128.928 341.24 125.496 337.144 125.496C333.048 125.496 331.224 128.928 331.224 128.928C331.224 128.928 327.48 123.992 323.232 126.952C320.888 128.584 320.928 132.032 322.584 135.104C323.96 137.624 327.64 143.624 337.152 143.624Z"
                fill="white" stroke="#202020" stroke-width="1.2" stroke-linecap="round" stroke-linejoin="round" />
            <path fill-rule="evenodd" clip-rule="evenodd"
                d="M329.024 142.024H345.272C347.416 142.024 349.144 143.768 349.144 145.928C349.144 148.088 347.416 149.832 345.272 149.832H329.024C326.88 149.832 325.152 148.088 325.152 145.928C325.152 143.768 326.88 142.024 329.024 142.024Z"
                fill="#FF9C2E" stroke="#202020" stroke-width="1.2" stroke-linecap="round" stroke-linejoin="round" />
            <path
                d="M311.288 142.392L311.832 143.92C312.008 144.432 312.408 144.832 312.92 145.008L314.448 145.552C314.912 145.72 314.912 146.376 314.448 146.536L312.92 147.08C312.408 147.256 312.008 147.656 311.832 148.168L311.288 149.696C311.12 150.16 310.464 150.16 310.304 149.696L309.76 148.168C309.584 147.656 309.184 147.256 308.672 147.08L307.144 146.536C306.68 146.368 306.68 145.712 307.144 145.552L308.672 145.008C309.184 144.832 309.584 144.432 309.76 143.92L310.304 142.392C310.464 141.928 311.12 141.928 311.288 142.392Z"
                fill="white" />
            <path
                d="M384.496 6.696L385.576 9.752C385.936 10.768 386.736 11.568 387.752 11.928L390.808 13.008C391.736 13.336 391.736 14.648 390.808 14.976L387.752 16.056C386.736 16.416 385.936 17.216 385.576 18.232L384.496 21.288C384.168 22.216 382.856 22.216 382.528 21.288L381.448 18.232C381.088 17.216 380.288 16.416 379.272 16.056L376.216 14.976C375.288 14.648 375.288 13.336 376.216 13.008L379.272 11.928C380.288 11.568 381.088 10.768 381.448 9.752L382.528 6.696C382.856 5.768 384.168 5.768 384.496 6.696Z"
                fill="white" />
            <path
                d="M398.944 31.1041L399.488 32.6321C399.664 33.1441 400.064 33.5441 400.576 33.7201L402.104 34.2641C402.568 34.4321 402.568 35.0881 402.104 35.2481L400.576 35.7921C400.064 35.9681 399.664 36.3681 399.488 36.8801L398.944 38.4081C398.776 38.8721 398.12 38.8721 397.96 38.4081L397.416 36.8801C397.24 36.3681 396.84 35.9681 396.328 35.7921L394.8 35.2481C394.336 35.0801 394.336 34.4241 394.8 34.2641L396.328 33.7201C396.84 33.5441 397.24 33.1441 397.416 32.6321L397.96 31.1041C398.12 30.6401 398.776 30.6401 398.944 31.1041Z"
                fill="#FF9C2E" />
        </g>
        <path
            d="M26.0875 34.9988H20V20.4551H25.8415C28.6808 20.4551 30.3356 22.0485 30.3356 24.5401C30.3356 26.1549 29.2743 27.1949 28.5391 27.5425C29.4186 27.9515 30.5415 28.8712 30.5415 30.8121C30.5415 33.5284 28.6808 34.9988 26.0875 34.9988ZM25.617 22.9869H22.8392V26.3394H25.617C26.8227 26.3394 27.4964 25.6657 27.4964 24.6631C27.4964 23.6632 26.8227 22.9869 25.617 22.9869ZM25.8014 28.8926H22.8392V32.467H25.8014C27.0874 32.467 27.7023 31.6489 27.7023 30.6704C27.7023 29.6892 27.0874 28.8926 25.8014 28.8926Z"
            fill="white" />
        <path
            d="M39.2009 29.0342V34.9988H36.3831V29.0342L32.012 20.4551H35.0971L37.8134 26.318L40.4895 20.4551H43.5721L39.2009 29.0342Z"
            fill="white" />
        <path
            d="M51.6219 34.9988H45.5344V20.4551H51.376C54.2152 20.4551 55.8701 22.0485 55.8701 24.5401C55.8701 26.1549 54.8087 27.1949 54.0735 27.5425C54.9531 27.9515 56.0759 28.8712 56.0759 30.8121C56.0759 33.5284 54.2152 34.9988 51.6219 34.9988ZM51.1514 22.9869H48.3737V26.3394H51.1514C52.3571 26.3394 53.0308 25.6657 53.0308 24.6631C53.0308 23.6632 52.3571 22.9869 51.1514 22.9869ZM51.3359 28.8926H48.3737V32.467H51.3359C52.6218 32.467 53.2367 31.6489 53.2367 30.6704C53.234 29.6892 52.6218 28.8926 51.3359 28.8926Z"
            fill="white" />
        <path d="M62.0189 16H59.1797V30.5437H62.0189V16Z" fill="#F7A600" />
        <path d="M71.1702 22.9869V34.9988H68.331V22.9869H64.532V20.4551H74.9692V22.9869H71.1702Z" fill="white" />
    </g>
    <defs>
        <radialGradient id="paint0_radial_2031_35230" cx="0" cy="0" r="1" gradientUnits="userSpaceOnUse"
            gradientTransform="translate(471.008 216.109) scale(195.989 195.48)">
            <stop stop-color="#FF9C2E" stop-opacity="0.5" />
            <stop offset="1" stop-color="#FF9C2E" stop-opacity="0" />
        </radialGradient>
        <radialGradient id="paint1_radial_2031_35230" cx="0" cy="0" r="1" gradientUnits="userSpaceOnUse"
            gradientTransform="translate(426.282 46.7217) scale(182.402)">
            <stop stop-color="#FF9C2E" stop-opacity="0.2" />
            <stop offset="1" stop-color="#FF9C2E" />
        </radialGradient>
        <clipPath id="clip0_2031_35230">
            <path d="M0 12C0 5.37259 5.37258 0 12 0H428C434.627 0 440 5.37258 440 12V240H0V12Z" fill="white" />
        </clipPath>
        <clipPath id="clip1_2031_35230">
            <rect width="198" height="233.768" fill="white" transform="translate(270 6)" />
        </clipPath>
    </defs>
</svg>